<?xml version="1.0" standalone="no"?>
<!DOCTYPE svg PUBLIC "-//W3C//DTD SVG 20010904//EN"
 "http://www.w3.org/TR/2001/REC-SVG-20010904/DTD/svg10.dtd">
<svg version="1.0" xmlns="http://www.w3.org/2000/svg"
 width="700.000000pt" height="700.000000pt" viewBox="0 0 700.000000 700.000000"
 preserveAspectRatio="xMidYMid meet">
<metadata>
Created by potrace 1.14, written by Peter Selinger 2001-2017
</metadata>
<g transform="translate(0.000000,700.000000) scale(0.100000,-0.100000)"
fill="#000000" stroke="none">
<path d="M3167 6424 c-1 -1 -54 -4 -117 -8 -63 -3 -126 -8 -140 -10 -14 -2
-50 -6 -80 -10 -30 -4 -75 -11 -100 -16 -25 -5 -56 -12 -70 -14 -50 -8 -189
-46 -281 -77 -468 -156 -899 -451 -1198 -819 -34 -41 -67 -82 -74 -90 -71 -78
-272 -432 -338 -595 -17 -40 -78 -217 -84 -245 -2 -8 -11 -40 -20 -70 -22 -80
-63 -294 -71 -375 -4 -38 -8 -83 -10 -100 -6 -58 -6 -341 1 -400 18 -164 24
-208 47 -320 69 -340 197 -648 392 -940 41 -60 105 -148 142 -194 74 -92 247
-269 333 -341 319 -267 709 -465 1096 -555 130 -30 150 -34 200 -41 28 -3 59
-8 69 -10 95 -18 428 -24 571 -10 473 45 915 208 1295 480 47 33 91 67 99 74
12 12 97 -69 570 -541 389 -389 569 -562 601 -577 152 -76 347 8 398 170 27
86 15 174 -32 247 -13 21 -269 281 -570 577 l-545 539 34 46 c228 300 418 710
481 1036 2 11 8 43 14 70 56 284 60 668 9 935 -6 30 -12 66 -15 80 -64 345
-232 724 -463 1040 -319 438 -810 785 -1337 945 -63 19 -129 37 -146 40 -17 3
-35 8 -38 10 -4 3 -25 7 -46 10 -22 4 -47 8 -56 11 -27 8 -57 13 -117 20 -31
3 -65 8 -76 10 -26 5 -324 22 -328 18z m213 -599 c258 -20 539 -101 770 -222
592 -310 992 -884 1084 -1558 14 -100 15 -431 2 -505 -53 -292 -101 -452 -196
-644 -137 -280 -354 -548 -586 -722 -295 -222 -642 -364 -994 -408 -112 -14
-408 -15 -509 -1 -41 5 -215 40 -251 50 -8 2 -41 11 -72 20 -439 120 -871 445
-1137 855 -131 202 -252 503 -286 710 -3 19 -8 42 -10 50 -2 8 -7 40 -10 70
-4 30 -8 71 -11 90 -12 87 -5 366 11 452 2 9 7 38 10 65 19 133 76 325 144
482 245 569 759 1006 1366 1160 142 36 287 57 404 60 47 1 86 3 87 4 3 3 103
-1 184 -8z"/>
</g>
</svg>
