<?xml version="1.0" standalone="no"?>
<!DOCTYPE svg PUBLIC "-//W3C//DTD SVG 20010904//EN"
 "http://www.w3.org/TR/2001/REC-SVG-20010904/DTD/svg10.dtd">
<svg version="1.0" xmlns="http://www.w3.org/2000/svg"
 width="736.000000pt" height="736.000000pt" viewBox="0 0 736.000000 736.000000"
 preserveAspectRatio="xMidYMid meet">
<metadata>
Created by potrace 1.14, written by Peter Selinger 2001-2017
</metadata>
<g transform="translate(0.000000,736.000000) scale(0.100000,-0.100000)"
fill="#000000" stroke="none">
<path d="M930 7104 c-36 -8 -76 -16 -90 -18 -71 -11 -280 -104 -346 -155 -12
-9 -32 -23 -44 -31 -112 -77 -244 -230 -319 -374 -42 -78 -98 -230 -106 -283
-2 -15 -8 -50 -14 -78 -11 -52 -10 -4027 0 -4075 4 -14 9 -41 13 -60 56 -271
241 -545 466 -690 119 -77 115 -74 129 -137 23 -104 121 -333 143 -333 4 0 8
-5 8 -11 0 -17 84 -121 157 -193 37 -37 104 -92 149 -122 90 -60 241 -134 272
-134 12 0 23 -4 26 -9 3 -4 34 -14 68 -21 35 -7 77 -15 93 -19 43 -9 4832 -7
4881 2 22 4 55 12 72 17 18 5 32 6 32 3 0 -3 7 1 17 8 9 8 17 12 17 10 1 -4
36 5 71 18 49 18 235 115 235 122 0 4 8 10 18 13 31 11 152 122 212 196 25 30
48 57 51 60 8 8 74 120 99 170 19 36 82 208 80 218 0 2 6 33 17 77 4 17 9 932
10 2035 2 2206 6 2074 -59 2265 -78 230 -234 429 -447 569 -98 64 -98 65 -110
118 -20 95 -37 142 -86 240 -70 138 -146 236 -276 354 -115 104 -338 213 -489
239 -19 3 -53 10 -75 15 -24 6 -1021 9 -2425 9 -2048 -1 -2394 -3 -2450 -15z"/>
</g>
</svg>
