<svg>
<symbol id="search" width="8" height="8" viewBox="0 0 8 8" fill="currentColor" xmlns="http://www.w3.org/2000/svg">
<path d="M4.00002 0.17392L4.8634 2.83108H7.6573L5.39696 4.47326L6.26034 7.13045L4.00002 5.48823L1.73971 7.13045L2.60309 4.47326L0.342773 2.83108H3.13665L4.00002 0.17392Z"/>
</symbol>

<symbol id="star" width="16" height="16" viewBox="0 0 16 16" fill="none" xmlns="http://www.w3.org/2000/svg">
<path d="M8 16C12.4183 16 16 12.4183 16 8C16 3.58172 12.4183 0 8 0C3.58172 0 0 3.58172 0 8C0 12.4183 3.58172 16 8 16Z" fill="#D80027"/>
<path d="M8.00002 4.17392L8.8634 6.83108H11.6573L9.39696 8.47326L10.2603 11.1305L8.00002 9.48823L5.73971 11.1305L6.60309 8.47326L4.34277 6.83108H7.13665L8.00002 4.17392Z" fill="#FFDA44"/>
</symbol>

</svg>