<svg width="894" height="492" viewBox="0 0 894 492" fill="none" xmlns="http://www.w3.org/2000/svg">
<g opacity="0.25">
<path d="M745.774 327.945C749.662 324.182 754.953 321.898 760.789 321.947C766.585 321.996 771.871 324.335 775.81 328.148" stroke="#1C186C" stroke-width="4.63957" stroke-linecap="round" stroke-linejoin="round"/>
<path d="M774.882 319.31C770.689 316.523 765.87 314.934 760.757 314.886C754.765 314.836 749.201 316.928 744.572 320.561C742.697 322.036 742.166 324.924 743.374 327.151L744.64 329.486L749.88 338.993C749.88 338.993 753.6 345.76 757.106 352.142C758.801 355.225 762.743 355.272 764.425 352.235L776.939 329.691L778.171 327.467C779.383 325.264 778.84 322.331 776.929 320.831C776.286 320.274 775.584 319.781 774.882 319.31Z" stroke="#1C186C" stroke-width="4.63957" stroke-linecap="round" stroke-linejoin="round"/>
<path d="M767.744 332.399C768.213 332.614 768.74 332.614 769.208 332.401C769.462 332.294 769.657 332.144 769.853 331.952C770.204 331.546 770.42 331.011 770.42 330.454C770.421 329.877 770.226 329.363 769.856 328.956C769.485 328.549 769.017 328.334 768.49 328.334C767.963 328.333 767.495 328.547 767.124 328.953C766.752 329.359 766.557 329.894 766.556 330.45C766.555 331.007 766.77 331.542 767.12 331.949C767.296 332.163 767.51 332.313 767.744 332.399Z" fill="#201D67"/>
<path d="M760.057 330.294C760.525 330.508 761.052 330.509 761.521 330.295C761.755 330.188 761.97 330.039 762.165 329.846C762.517 329.44 762.732 328.905 762.733 328.349C762.733 327.771 762.539 327.257 762.168 326.85C761.798 326.443 761.33 326.229 760.803 326.228C760.276 326.228 759.807 326.441 759.436 326.847C759.065 327.254 758.869 327.767 758.869 328.345C758.868 328.901 759.082 329.437 759.433 329.844C759.608 330.036 759.803 330.186 760.057 330.294Z" fill="#201D67"/>
<path d="M751.701 331.954C752.423 332.747 753.711 332.748 754.434 331.957C754.785 331.551 755.001 331.016 755.001 330.46C755.002 329.882 754.807 329.368 754.437 328.961C754.067 328.554 753.598 328.339 753.071 328.339C752.818 328.339 752.564 328.403 752.349 328.509C752.115 328.616 751.9 328.766 751.705 328.958C751.333 329.364 751.138 329.878 751.137 330.456C751.156 330.991 751.37 331.547 751.701 331.954Z" fill="#201D67"/>
<path d="M755.148 339.706C755.245 339.984 755.381 340.198 755.557 340.412C756.278 341.205 757.566 341.206 758.289 340.415C758.465 340.201 758.602 339.988 758.7 339.709C758.798 339.453 758.856 339.175 758.857 338.918C758.857 338.64 758.799 338.361 758.701 338.126C758.604 337.869 758.468 337.633 758.292 337.419C757.922 337.012 757.454 336.798 756.927 336.797C756.673 336.797 756.419 336.861 756.205 336.967C755.97 337.074 755.755 337.224 755.56 337.416C755.189 337.822 754.993 338.336 754.993 338.914C754.992 339.17 755.05 339.449 755.148 339.706Z" fill="#201D67"/>
<path d="M762.857 339.714C762.954 339.971 763.09 340.206 763.266 340.421C764.007 341.213 765.295 341.215 765.998 340.424C766.174 340.21 766.311 339.996 766.409 339.718C766.507 339.461 766.565 339.183 766.566 338.926C766.566 338.348 766.372 337.834 766.001 337.427C765.806 337.235 765.592 337.085 765.358 336.977C765.124 336.87 764.87 336.806 764.616 336.805C764.089 336.805 763.621 337.018 763.25 337.424C763.074 337.638 762.937 337.874 762.839 338.13C762.722 338.387 762.682 338.665 762.682 338.922C762.701 339.179 762.74 339.457 762.857 339.714Z" fill="#201D67"/>
<path d="M762.128 345.854C761.758 345.447 761.29 345.233 760.763 345.232C760.509 345.232 760.255 345.296 760.041 345.403C759.806 345.509 759.591 345.659 759.396 345.851C759.22 346.065 759.083 346.301 758.985 346.557C758.888 346.814 758.829 347.092 758.829 347.349C758.828 347.927 759.042 348.441 759.393 348.848C759.939 349.426 760.778 349.641 761.5 349.299C761.754 349.193 761.949 349.043 762.145 348.851C762.496 348.444 762.712 347.91 762.712 347.353C762.713 347.075 762.654 346.797 762.557 346.561C762.44 346.304 762.304 346.069 762.128 345.854Z" fill="#201D67"/>
<path d="M280.136 422.082C282.503 416.606 287.582 412.823 293.476 412.83C301.614 412.838 308.222 420.101 308.212 429.025C308.204 436.965 302.966 443.572 296.056 444.935C295.827 440.119 292.611 436.156 288.397 435.274C288.475 434.697 288.535 434.097 288.535 433.498C288.541 427.891 284.936 423.2 280.136 422.082Z" stroke="#1C186C" stroke-width="4.63957" stroke-linecap="round" stroke-linejoin="round"/>
<path d="M299.557 437.833C300.748 437.834 301.725 436.765 301.726 435.46C301.728 434.154 300.753 433.083 299.562 433.082C298.372 433.081 297.395 434.15 297.394 435.455C297.392 436.782 298.367 437.832 299.557 437.833Z" fill="#201D67"/>
<path d="M304.325 450.23C305.515 450.231 306.492 449.162 306.494 447.856C306.495 446.551 305.521 445.48 304.33 445.478C303.14 445.477 302.163 446.546 302.161 447.852C302.179 449.179 303.134 450.228 304.325 450.23Z" fill="#201D67"/>
<path d="M293.261 430.529C294.452 430.53 295.429 429.461 295.43 428.156C295.432 426.85 294.457 425.779 293.267 425.778C292.076 425.777 291.099 426.846 291.098 428.151C291.096 429.478 292.071 430.528 293.261 430.529Z" fill="#201D67"/>
<path d="M291.398 421.003C291.398 421.003 291.808 420.746 292.335 420.405C292.843 420.084 293.273 419.806 293.273 419.806C293.273 419.806 292.863 420.063 292.335 420.405C291.828 420.747 291.398 421.003 291.398 421.003Z" stroke="#1C186C" stroke-width="4.63957" stroke-linecap="round" stroke-linejoin="round"/>
<path d="M301.325 427.155C301.325 427.155 300.877 426.941 300.33 426.683C299.784 426.426 299.336 426.211 299.336 426.211C299.336 426.211 299.784 426.426 300.33 426.683C300.877 426.941 301.325 427.155 301.325 427.155Z" stroke="#1C186C" stroke-width="4.63957" stroke-linecap="round" stroke-linejoin="round"/>
<path d="M310.991 440.627C310.991 440.627 310.639 440.991 310.209 441.44C309.78 441.889 309.428 442.252 309.428 442.252C309.428 442.252 309.78 441.889 310.209 441.44C310.639 440.991 310.991 440.627 310.991 440.627Z" stroke="#1C186C" stroke-width="4.63957" stroke-linecap="round" stroke-linejoin="round"/>
<path d="M312.975 428.709C315.002 431.236 316.228 434.533 316.224 438.15C316.216 446.047 310.374 452.44 303.172 452.432C297.356 452.426 292.423 448.247 290.751 442.467" stroke="#1C186C" stroke-width="4.63957" stroke-linecap="round" stroke-linejoin="round"/>
<path d="M681.619 264.25C682.872 264.556 684.176 264.514 685.41 264.127C686.645 263.739 687.771 263.019 688.687 262.031C689.075 261.593 689.292 261.006 689.292 260.395C689.293 259.784 689.077 259.197 688.69 258.757L686.468 256.229" stroke="#1C186C" stroke-width="4.63957" stroke-linecap="round" stroke-linejoin="round"/>
<path d="M667.078 247.991C666.811 246.599 666.865 245.156 667.235 243.792C667.604 242.429 668.278 241.188 669.194 240.181C669.388 239.967 669.62 239.796 669.874 239.68C670.129 239.564 670.402 239.505 670.678 239.505C670.954 239.505 671.227 239.565 671.481 239.682C671.736 239.799 671.967 239.97 672.161 240.185L674.422 242.712" stroke="#1C186C" stroke-width="4.63957" stroke-linecap="round" stroke-linejoin="round"/>
<path d="M684.941 242.21C684.137 240.813 683.713 239.194 683.716 237.543C683.718 236.428 683.921 235.325 684.314 234.296C684.707 233.268 685.282 232.336 686.006 231.553C686.143 231.418 686.32 231.343 686.504 231.343C686.688 231.343 686.865 231.418 687.001 231.554C687.639 232.263 688.148 233.099 688.501 234.017C688.823 234.688 689.047 235.41 689.163 236.158C689.207 236.613 689.206 237.072 689.161 237.527C688.808 239.608 687.839 241.503 686.404 242.917C687.734 241.385 689.481 240.366 691.383 240.012C691.799 239.969 692.217 239.97 692.632 240.014C693.315 240.16 693.973 240.421 694.583 240.786C695.423 241.224 696.177 241.835 696.806 242.586C696.929 242.736 696.998 242.93 696.997 243.132C696.997 243.334 696.929 243.528 696.805 243.678C695.343 245.242 693.38 246.116 691.338 246.112C689.84 246.099 688.377 245.615 687.124 244.716" stroke="#1C186C" stroke-width="4.63957" stroke-linecap="round" stroke-linejoin="round"/>
<path d="M662.527 268.959C662.758 269.249 663.02 269.508 663.307 269.73C664.109 270.292 665.005 270.673 665.943 270.85C666.882 271.028 667.843 270.998 668.77 270.763C670.962 270.403 673.078 269.615 675.018 268.437C678.665 266.511 681.73 263.476 683.849 259.694C685.728 255.891 686.794 251.669 686.965 247.348C686.965 247.049 687.299 244.802 687.085 244.652L684.921 242.21C684.785 241.974 682.755 242.207 682.482 242.314C678.522 242.423 674.639 243.54 671.139 245.576C667.667 247.82 664.869 251.127 663.088 255.091C661.367 259.006 659.408 265.232 662.527 268.959Z" stroke="#1C186C" stroke-width="4.63957" stroke-linecap="round" stroke-linejoin="round"/>
<path d="M676.115 266.491C675.327 263.569 673.903 260.902 671.967 258.718C670.022 256.539 667.617 254.919 664.965 254.002" stroke="#1C186C" stroke-width="4.63957" stroke-linecap="round" stroke-linejoin="round"/>
<path d="M667.682 266.418C667.864 266.625 668.082 266.79 668.323 266.903C668.565 267.016 668.824 267.074 669.086 267.075C669.349 267.075 669.609 267.017 669.85 266.905C670.092 266.793 670.31 266.628 670.492 266.421C670.758 266.119 670.938 265.738 671.008 265.325C671.078 264.912 671.035 264.486 670.886 264.099C670.736 263.713 670.487 263.383 670.167 263.151C669.848 262.919 669.474 262.795 669.091 262.794C668.708 262.794 668.334 262.917 668.014 263.148C667.694 263.38 667.444 263.709 667.294 264.095C667.143 264.482 667.1 264.908 667.169 265.321C667.238 265.734 667.417 266.115 667.682 266.418Z" fill="#201D67"/>
<path d="M483.99 253.187L475.995 228.973L467.948 253.169" stroke="#1C186C" stroke-width="4.63957" stroke-linecap="round" stroke-linejoin="round"/>
<path d="M463.927 254.256C464.259 254.257 464.551 254.236 464.825 254.193C466.972 253.81 467.266 252.056 469.96 252.058C472.985 252.062 472.982 254.266 475.968 254.269C478.993 254.273 478.996 252.068 481.982 252.071C484.675 252.074 484.946 253.808 487.112 254.217C487.366 254.26 487.678 254.282 488.01 254.282" stroke="#1C186C" stroke-width="4.63957" stroke-linecap="round" stroke-linejoin="round"/>
<path d="M465.933 257.554C465.934 256.398 466.091 255.243 466.424 254.194C468.279 253.811 468.515 252.056 470.818 252.059C473.413 252.062 473.411 254.266 475.967 254.269C478.563 254.271 478.565 252.067 481.122 252.07C483.425 252.072 483.677 253.806 485.511 254.215C485.822 255.264 485.996 256.42 485.995 257.575C485.989 263.653 481.495 268.571 475.952 268.565C470.409 268.559 465.926 263.632 465.933 257.554Z" stroke="#1C186C" stroke-width="4.63957" stroke-linecap="round" stroke-linejoin="round"/>
<path d="M465.939 250.962L486.002 250.983" stroke="#1C186C" stroke-width="4.63957" stroke-linecap="round" stroke-linejoin="round"/>
<path d="M277.492 249.841L291.934 249.857L291.936 247.588L277.494 247.573L277.492 249.841Z" stroke="#1C186C" stroke-width="4.63957" stroke-linecap="round" stroke-linejoin="round"/>
<path d="M268.729 267.937C267.401 267.936 266.388 266.565 266.702 265.153C268.76 256.359 276.047 249.861 284.712 249.87C293.377 249.879 300.65 256.393 302.69 265.191C303.02 266.604 302.004 267.973 300.657 267.971L268.729 267.937V267.937Z" stroke="#1C186C" stroke-width="4.63957" stroke-linecap="round" stroke-linejoin="round"/>
<path d="M292.481 267.963C290.206 267.961 288.361 269.98 288.358 272.474C288.355 274.968 290.197 276.992 292.471 276.995C294.745 276.997 296.591 274.977 296.594 272.483C296.596 269.989 294.755 267.966 292.481 267.963Z" stroke="#1C186C" stroke-width="4.63957" stroke-linecap="round" stroke-linejoin="round"/>
<path d="M276.906 268.288C274.632 268.285 272.786 270.305 272.784 272.799C272.781 275.293 274.623 277.317 276.897 277.319C279.171 277.322 281.017 275.302 281.02 272.808C281.022 270.314 279.181 268.29 276.906 268.288Z" stroke="#1C186C" stroke-width="4.63957" stroke-linecap="round" stroke-linejoin="round"/>
<path d="M284.049 268.274C282.335 268.272 280.944 269.794 280.942 271.674C280.94 273.553 282.328 275.078 284.041 275.08C285.755 275.082 287.146 273.56 287.148 271.68C287.15 269.801 285.763 268.276 284.049 268.274Z" stroke="#1C186C" stroke-width="4.63957" stroke-linecap="round" stroke-linejoin="round"/>
<path d="M294.715 276.697L301.187 283.809" stroke="#1C186C" stroke-width="4.63957" stroke-linecap="round" stroke-linejoin="round"/>
<path d="M300.157 261.228L269.244 261.195" stroke="#1C186C" stroke-width="4.63957" stroke-linecap="round" stroke-linejoin="round"/>
<path d="M360.713 355.653L395.842 355.69C395.846 352.138 393.234 349.267 389.994 349.264L366.574 349.239C363.335 349.235 360.717 352.1 360.713 355.653Z" stroke="#1C186C" stroke-width="4.63957" stroke-linecap="round" stroke-linejoin="round"/>
<path d="M378.256 374.933C386.882 374.942 393.877 367.288 393.888 357.829L393.89 355.688L362.664 355.655L362.662 357.795C362.651 367.254 369.63 374.924 378.256 374.933Z" stroke="#1C186C" stroke-width="4.63957" stroke-linecap="round" stroke-linejoin="round"/>
<path d="M378.258 373.328C376.372 373.326 374.841 375.001 374.838 377.069C374.836 379.138 376.363 380.816 378.25 380.818C380.136 380.82 381.667 379.145 381.669 377.077C381.671 375.008 380.144 373.33 378.258 373.328Z" fill="#201D67"/>
<path d="M500.772 385.663C495.367 385.293 489.964 382.698 485.695 377.942C481.465 373.229 479.149 367.235 478.804 361.242" stroke="#1C186C" stroke-width="4.63957" stroke-linecap="round" stroke-linejoin="round"/>
<path d="M476.582 359.849L478.983 359.209L503.346 352.708C506.626 351.834 509.492 355.047 508.668 358.685L506.942 366.387L506.825 366.879L505.315 373.577L505.177 374.218L502.628 385.451L502.001 388.19C501.412 390.822 499.088 392.51 496.708 392.08C490.854 391.025 485.354 388.065 480.968 383.181C476.601 378.34 473.973 372.237 473.024 365.752C472.636 363.097 474.2 360.488 476.582 359.849Z" stroke="#1C186C" stroke-width="4.63957" stroke-linecap="round" stroke-linejoin="round"/>
<path d="M491.289 366.713C489.565 366.712 488.165 368.262 488.163 370.177C488.161 372.092 489.557 373.646 491.282 373.648C493.006 373.649 494.406 372.099 494.408 370.184C494.41 368.269 493.014 366.715 491.289 366.713Z" stroke="#1C186C" stroke-width="4.63957" stroke-linecap="round" stroke-linejoin="round"/>
<path d="M502.842 368.03C503.917 366.833 505.459 366.449 506.825 366.922L504.864 375.651C504.122 375.458 503.42 375.072 502.835 374.429C501.237 372.651 501.24 369.783 502.842 368.03Z" stroke="#1C186C" stroke-width="4.63957" stroke-linecap="round" stroke-linejoin="round"/>
<path d="M500.396 355.829C500.687 357.071 500.393 358.44 499.533 359.402C498.224 360.856 496.116 360.854 494.81 359.397C494.382 358.926 494.089 358.348 493.954 357.727" stroke="#1C186C" stroke-width="4.63957" stroke-linecap="round" stroke-linejoin="round"/>
<path d="M579.003 353.941L599.011 332.047C601.141 329.717 601.145 325.95 599.02 323.615C596.895 321.28 593.461 321.277 591.331 323.607L571.323 345.501C569.193 347.831 569.189 351.598 571.314 353.933C573.438 356.268 576.873 356.272 579.003 353.941Z" stroke="#1C186C" stroke-width="4.63957" stroke-linecap="round" stroke-linejoin="round"/>
<path d="M594.819 329.133C592.513 331.656 591.694 330.756 589.369 333.279C587.064 335.802 587.882 336.701 585.577 339.246C583.271 341.768 582.433 340.869 580.127 343.392C577.822 345.915 578.64 346.836 576.335 349.359" stroke="#1C186C" stroke-width="4.63957" stroke-linecap="round" stroke-linejoin="round"/>
<path d="M585.909 356.474L601.306 339.626C603.866 336.825 603.871 332.309 601.317 329.503L576.698 356.442C579.232 359.27 583.369 359.275 585.909 356.474Z" stroke="#1C186C" stroke-width="4.63957" stroke-linecap="round" stroke-linejoin="round"/>
<path d="M584.425 321.075L569.028 337.922C566.468 340.723 566.463 345.239 569.017 348.045L593.636 321.106C591.102 318.278 586.965 318.274 584.425 321.075Z" stroke="#1C186C" stroke-width="4.63957" stroke-linecap="round" stroke-linejoin="round"/>
<path d="M682.678 402.612L702.194 402.633C705.668 402.636 708.475 405.721 708.471 409.531L708.467 413.64L676.382 413.605L676.387 409.496C676.391 405.687 679.204 402.608 682.678 402.612Z" stroke="#1C186C" stroke-width="4.63957" stroke-linecap="round" stroke-linejoin="round"/>
<path d="M677.37 420.198L707.464 420.231C709.123 420.232 710.471 418.757 710.473 416.938C710.475 415.119 709.13 413.641 707.471 413.639L677.377 413.607C675.719 413.605 674.37 415.08 674.368 416.899C674.366 418.718 675.711 420.197 677.37 420.198Z" stroke="#1C186C" stroke-width="4.63957" stroke-linecap="round" stroke-linejoin="round"/>
<path d="M691.365 437.805L693.433 437.808C701.728 437.817 708.449 430.462 708.459 421.366L708.46 420.232L676.376 420.197L676.375 421.331C676.365 430.427 683.07 437.796 691.365 437.805Z" stroke="#1C186C" stroke-width="4.63957" stroke-linecap="round" stroke-linejoin="round"/>
<path d="M708.683 413.105C707.922 412.205 707.377 410.985 705.953 410.983C704.528 410.982 703.98 412.201 703.218 413.099" stroke="#1C186C" stroke-width="4.63957" stroke-linecap="round" stroke-linejoin="round"/>
<path d="M690.357 413.085C689.597 412.185 689.052 410.965 687.627 410.963C686.183 410.962 685.635 412.181 684.873 413.079" stroke="#1C186C" stroke-width="4.63957" stroke-linecap="round" stroke-linejoin="round"/>
<path d="M678.436 410.975C679.861 410.977 680.406 412.197 681.166 413.097" stroke="#1C186C" stroke-width="4.63957" stroke-linecap="round" stroke-linejoin="round"/>
<path d="M699.511 413.095C698.751 412.196 698.205 410.975 696.781 410.974C695.356 410.972 694.808 412.191 694.046 413.089" stroke="#1C186C" stroke-width="4.63957" stroke-linecap="round" stroke-linejoin="round"/>
<path d="M854.89 118.326C858.777 114.564 864.069 112.28 869.904 112.329C875.7 112.378 880.987 114.716 884.925 118.53" stroke="#1C186C" stroke-width="4.63957" stroke-linecap="round" stroke-linejoin="round"/>
<path d="M883.997 109.69C879.804 106.903 874.985 105.314 869.872 105.266C863.88 105.217 858.316 107.308 853.687 110.941C851.812 112.416 851.282 115.305 852.489 117.532L853.755 119.866L858.995 129.374C858.995 129.374 862.715 136.141 866.221 142.522C867.916 145.606 871.858 145.653 873.54 142.616L886.054 120.072L887.286 117.847C888.499 115.644 887.955 112.712 886.044 111.212C885.401 110.654 884.699 110.161 883.997 109.69Z" stroke="#1C186C" stroke-width="4.63957" stroke-linecap="round" stroke-linejoin="round"/>
<path d="M876.86 122.782C877.328 122.996 877.855 122.997 878.323 122.784C878.577 122.677 878.773 122.527 878.968 122.335C879.32 121.929 879.535 121.394 879.535 120.837C879.536 120.259 879.341 119.746 878.971 119.339C878.601 118.932 878.133 118.717 877.606 118.716C877.079 118.716 876.61 118.929 876.239 119.336C875.868 119.742 875.672 120.277 875.671 120.833C875.671 121.39 875.885 121.925 876.236 122.332C876.411 122.546 876.626 122.696 876.86 122.782Z" fill="#201D67"/>
<path d="M869.172 120.675C869.64 120.89 870.167 120.89 870.636 120.677C870.87 120.57 871.085 120.42 871.28 120.228C871.632 119.822 871.847 119.287 871.848 118.73C871.849 118.152 871.654 117.639 871.284 117.232C870.913 116.825 870.445 116.61 869.918 116.61C869.391 116.609 868.923 116.822 868.551 117.229C868.18 117.635 867.984 118.148 867.984 118.726C867.983 119.283 868.197 119.818 868.548 120.225C868.724 120.418 868.919 120.568 869.172 120.675Z" fill="#201D67"/>
<path d="M860.818 122.337C861.539 123.13 862.827 123.131 863.55 122.34C863.902 121.934 864.117 121.399 864.117 120.843C864.118 120.265 863.924 119.751 863.553 119.344C863.183 118.937 862.715 118.722 862.188 118.722C861.934 118.721 861.68 118.785 861.465 118.892C861.231 118.999 861.016 119.149 860.821 119.341C860.45 119.747 860.254 120.261 860.253 120.838C860.272 121.373 860.486 121.93 860.818 122.337Z" fill="#201D67"/>
<path d="M864.263 130.087C864.36 130.365 864.497 130.579 864.672 130.793C865.393 131.586 866.681 131.587 867.404 130.796C867.58 130.582 867.717 130.368 867.815 130.09C867.913 129.834 867.972 129.555 867.972 129.299C867.972 129.02 867.914 128.742 867.817 128.507C867.719 128.25 867.583 128.014 867.408 127.8C867.037 127.393 866.569 127.178 866.042 127.178C865.788 127.178 865.535 127.241 865.32 127.348C865.086 127.455 864.871 127.605 864.675 127.797C864.304 128.203 864.108 128.717 864.108 129.294C864.107 129.551 864.166 129.83 864.263 130.087Z" fill="#201D67"/>
<path d="M871.973 130.095C872.07 130.352 872.207 130.587 872.382 130.801C873.123 131.594 874.411 131.596 875.114 130.804C875.29 130.591 875.427 130.377 875.525 130.099C875.623 129.842 875.682 129.564 875.682 129.307C875.683 128.729 875.488 128.215 875.118 127.808C874.923 127.615 874.708 127.465 874.474 127.358C874.24 127.251 873.986 127.186 873.733 127.186C873.206 127.186 872.737 127.399 872.366 127.805C872.19 128.019 872.053 128.254 871.955 128.511C871.838 128.768 871.798 129.046 871.798 129.303C871.817 129.56 871.856 129.838 871.973 130.095Z" fill="#201D67"/>
<path d="M871.244 136.237C870.873 135.83 870.405 135.616 869.878 135.615C869.624 135.615 869.371 135.679 869.156 135.786C868.922 135.892 868.707 136.042 868.511 136.234C868.335 136.448 868.199 136.683 868.101 136.94C868.003 137.197 867.944 137.475 867.944 137.732C867.943 138.31 868.157 138.823 868.508 139.23C869.054 139.809 869.893 140.024 870.615 139.682C870.869 139.575 871.065 139.426 871.26 139.233C871.612 138.827 871.827 138.292 871.827 137.736C871.828 137.458 871.77 137.179 871.672 136.944C871.555 136.687 871.419 136.451 871.244 136.237Z" fill="#201D67"/>
<path d="M188.488 372.288C192.376 368.526 197.667 366.241 203.503 366.291C209.299 366.34 214.585 368.678 218.523 372.492" stroke="#1C186C" stroke-width="4.63957" stroke-linecap="round" stroke-linejoin="round"/>
<path d="M217.596 363.653C213.404 360.866 208.585 359.277 203.472 359.229C197.48 359.18 191.916 361.271 187.286 364.904C185.411 366.379 184.881 369.268 186.089 371.495L187.355 373.829L192.595 383.337C192.595 383.337 196.315 390.104 199.821 396.485C201.516 399.569 205.458 399.616 207.139 396.578L219.654 374.035L220.886 371.81C222.098 369.607 221.555 366.675 219.644 365.175C219.001 364.617 218.299 364.124 217.596 363.653Z" stroke="#1C186C" stroke-width="4.63957" stroke-linecap="round" stroke-linejoin="round"/>
<path d="M210.46 376.743C210.928 376.957 211.455 376.958 211.924 376.744C212.178 376.638 212.373 376.488 212.568 376.296C212.92 375.889 213.135 375.355 213.136 374.798C213.137 374.22 212.942 373.707 212.572 373.3C212.201 372.892 211.733 372.678 211.206 372.677C210.679 372.677 210.211 372.89 209.839 373.297C209.468 373.703 209.272 374.238 209.272 374.794C209.271 375.351 209.485 375.886 209.836 376.293C210.012 376.507 210.226 376.657 210.46 376.743Z" fill="#201D67"/>
<path d="M202.773 374.636C203.241 374.85 203.768 374.851 204.236 374.638C204.471 374.531 204.686 374.381 204.881 374.189C205.233 373.783 205.448 373.248 205.449 372.691C205.449 372.113 205.255 371.6 204.884 371.193C204.514 370.786 204.046 370.571 203.519 370.57C202.992 370.57 202.523 370.783 202.152 371.19C201.781 371.596 201.585 372.109 201.584 372.687C201.584 373.244 201.798 373.779 202.149 374.186C202.324 374.379 202.519 374.529 202.773 374.636Z" fill="#201D67"/>
<path d="M194.417 376.298C195.139 377.09 196.427 377.092 197.15 376.301C197.501 375.894 197.716 375.359 197.717 374.803C197.718 374.225 197.523 373.711 197.153 373.304C196.782 372.897 196.314 372.683 195.787 372.682C195.534 372.682 195.28 372.746 195.065 372.853C194.831 372.959 194.616 373.109 194.42 373.301C194.049 373.708 193.854 374.221 193.853 374.799C193.872 375.334 194.086 375.891 194.417 376.298Z" fill="#201D67"/>
<path d="M197.864 384.047C197.961 384.326 198.097 384.54 198.273 384.754C198.994 385.547 200.282 385.548 201.005 384.757C201.181 384.543 201.318 384.329 201.416 384.051C201.513 383.795 201.572 383.516 201.573 383.26C201.573 382.981 201.515 382.703 201.417 382.468C201.32 382.211 201.184 381.975 201.008 381.761C200.638 381.354 200.17 381.139 199.643 381.139C199.389 381.138 199.135 381.202 198.92 381.309C198.686 381.416 198.471 381.566 198.276 381.758C197.905 382.164 197.709 382.678 197.708 383.255C197.708 383.512 197.766 383.791 197.864 384.047Z" fill="#201D67"/>
<path d="M205.574 384.056C205.671 384.313 205.807 384.548 205.983 384.762C206.723 385.555 208.011 385.556 208.715 384.765C208.891 384.552 209.028 384.338 209.126 384.06C209.223 383.803 209.282 383.525 209.283 383.268C209.283 382.69 209.089 382.176 208.718 381.769C208.523 381.576 208.309 381.426 208.075 381.319C207.841 381.212 207.587 381.147 207.333 381.147C206.806 381.146 206.338 381.36 205.966 381.766C205.791 381.98 205.654 382.215 205.556 382.472C205.438 382.729 205.399 383.007 205.399 383.264C205.418 383.521 205.457 383.799 205.574 384.056Z" fill="#201D67"/>
<path d="M204.844 390.198C204.474 389.791 204.006 389.577 203.479 389.576C203.225 389.576 202.971 389.64 202.756 389.746C202.522 389.853 202.307 390.003 202.112 390.195C201.936 390.409 201.799 390.644 201.701 390.901C201.603 391.158 201.545 391.436 201.544 391.693C201.544 392.271 201.758 392.784 202.109 393.191C202.655 393.77 203.493 393.985 204.216 393.643C204.47 393.536 204.665 393.387 204.86 393.194C205.212 392.788 205.427 392.253 205.428 391.697C205.428 391.419 205.37 391.14 205.273 390.905C205.156 390.648 205.02 390.412 204.844 390.198Z" fill="#201D67"/>
<path d="M252.295 104.839C256.183 101.077 261.474 98.7927 267.309 98.8418C273.106 98.8908 278.392 101.229 282.33 105.043" stroke="#1C186C" stroke-width="4.63957" stroke-linecap="round" stroke-linejoin="round"/>
<path d="M281.403 96.2036C277.21 93.4169 272.391 91.828 267.278 91.7797C261.287 91.7304 255.722 93.8218 251.093 97.4551C249.218 98.9298 248.688 101.818 249.896 104.045L251.162 106.38L256.401 115.888C256.401 115.888 260.122 122.654 263.628 129.036C265.322 132.119 269.264 132.166 270.946 129.129L283.461 106.586L284.693 104.361C285.905 102.158 285.362 99.2255 283.451 97.7253C282.807 97.1682 282.105 96.6752 281.403 96.2036Z" stroke="#1C186C" stroke-width="4.63957" stroke-linecap="round" stroke-linejoin="round"/>
<path d="M274.267 109.293C274.735 109.507 275.262 109.508 275.731 109.294C275.984 109.188 276.18 109.038 276.375 108.846C276.727 108.439 276.942 107.904 276.943 107.348C276.943 106.77 276.749 106.256 276.378 105.849C276.008 105.442 275.54 105.228 275.013 105.227C274.486 105.227 274.017 105.44 273.646 105.846C273.275 106.253 273.079 106.787 273.079 107.344C273.078 107.9 273.292 108.436 273.643 108.843C273.818 109.057 274.033 109.207 274.267 109.293Z" fill="#201D67"/>
<path d="M266.579 107.187C267.048 107.401 267.574 107.402 268.043 107.188C268.277 107.082 268.492 106.932 268.688 106.74C269.039 106.333 269.255 105.798 269.255 105.242C269.256 104.664 269.061 104.15 268.691 103.743C268.32 103.336 267.852 103.122 267.325 103.121C266.798 103.121 266.33 103.334 265.959 103.74C265.587 104.147 265.392 104.66 265.391 105.238C265.39 105.794 265.604 106.33 265.955 106.737C266.131 106.929 266.326 107.079 266.579 107.187Z" fill="#201D67"/>
<path d="M258.224 108.848C258.945 109.641 260.233 109.642 260.956 108.851C261.308 108.445 261.523 107.91 261.524 107.353C261.524 106.775 261.33 106.262 260.959 105.855C260.589 105.448 260.121 105.233 259.594 105.232C259.34 105.232 259.086 105.296 258.872 105.403C258.637 105.51 258.423 105.659 258.227 105.852C257.856 106.258 257.66 106.771 257.66 107.349C257.678 107.884 257.893 108.441 258.224 108.848Z" fill="#201D67"/>
<path d="M261.67 116.598C261.768 116.877 261.904 117.091 262.079 117.305C262.801 118.098 264.089 118.099 264.812 117.308C264.987 117.094 265.124 116.88 265.222 116.602C265.32 116.345 265.379 116.067 265.379 115.81C265.38 115.532 265.321 115.254 265.224 115.018C265.127 114.761 264.99 114.526 264.815 114.312C264.444 113.905 263.976 113.69 263.449 113.69C263.196 113.689 262.942 113.753 262.727 113.86C262.493 113.967 262.278 114.116 262.083 114.309C261.711 114.715 261.516 115.228 261.515 115.806C261.515 116.063 261.573 116.341 261.67 116.598Z" fill="#201D67"/>
<path d="M269.378 116.607C269.476 116.863 269.612 117.099 269.787 117.313C270.528 118.106 271.816 118.107 272.52 117.316C272.695 117.102 272.832 116.888 272.93 116.61C273.028 116.354 273.087 116.075 273.087 115.819C273.088 115.241 272.893 114.727 272.523 114.32C272.328 114.127 272.113 113.977 271.879 113.87C271.645 113.763 271.392 113.698 271.138 113.698C270.611 113.697 270.142 113.911 269.771 114.317C269.595 114.531 269.458 114.766 269.36 115.023C269.243 115.279 269.204 115.558 269.203 115.814C269.223 116.071 269.261 116.35 269.378 116.607Z" fill="#201D67"/>
<path d="M268.651 122.748C268.28 122.341 267.812 122.126 267.285 122.126C267.032 122.126 266.778 122.19 266.563 122.296C266.329 122.403 266.114 122.553 265.919 122.745C265.743 122.959 265.606 123.194 265.508 123.451C265.41 123.708 265.351 123.986 265.351 124.243C265.35 124.82 265.564 125.334 265.915 125.741C266.461 126.32 267.3 126.535 268.023 126.193C268.276 126.086 268.472 125.937 268.667 125.744C269.019 125.338 269.234 124.803 269.235 124.247C269.235 123.968 269.177 123.69 269.079 123.455C268.963 123.198 268.826 122.962 268.651 122.748Z" fill="#201D67"/>
<path d="M374.04 212.449C376.408 206.973 381.486 203.19 387.38 203.196C395.518 203.205 402.126 210.467 402.117 219.392C402.108 227.332 396.871 233.939 389.961 235.301C389.732 230.486 386.516 226.523 382.301 225.641C382.38 225.063 382.439 224.464 382.44 223.865C382.446 218.258 378.84 213.567 374.04 212.449Z" stroke="#1C186C" stroke-width="4.63957" stroke-linecap="round" stroke-linejoin="round"/>
<path d="M393.463 228.2C394.653 228.201 395.63 227.132 395.631 225.827C395.633 224.521 394.658 223.45 393.468 223.449C392.277 223.447 391.3 224.516 391.299 225.822C391.297 227.149 392.272 228.199 393.463 228.2Z" fill="#201D67"/>
<path d="M398.23 240.597C399.421 240.599 400.398 239.53 400.399 238.224C400.4 236.919 399.426 235.847 398.235 235.846C397.045 235.845 396.068 236.914 396.066 238.219C396.085 239.546 397.04 240.596 398.23 240.597Z" fill="#201D67"/>
<path d="M387.167 220.895C388.357 220.896 389.334 219.827 389.336 218.521C389.337 217.216 388.362 216.145 387.172 216.144C385.981 216.142 385.004 217.211 385.003 218.517C385.002 219.844 385.976 220.893 387.167 220.895Z" fill="#201D67"/>
<path d="M385.303 211.371C385.303 211.371 385.713 211.114 386.241 210.772C386.748 210.452 387.178 210.174 387.178 210.174C387.178 210.174 386.768 210.43 386.241 210.772C385.733 211.114 385.303 211.371 385.303 211.371Z" stroke="#1C186C" stroke-width="4.63957" stroke-linecap="round" stroke-linejoin="round"/>
<path d="M395.228 217.522C395.228 217.522 394.779 217.308 394.233 217.051C393.687 216.793 393.238 216.579 393.238 216.579C393.238 216.579 393.687 216.793 394.233 217.051C394.779 217.308 395.228 217.522 395.228 217.522Z" stroke="#1C186C" stroke-width="4.63957" stroke-linecap="round" stroke-linejoin="round"/>
<path d="M404.894 230.994C404.894 230.994 404.543 231.357 404.113 231.806C403.683 232.255 403.331 232.618 403.331 232.618C403.331 232.618 403.683 232.255 404.113 231.806C404.543 231.357 404.894 230.994 404.894 230.994Z" stroke="#1C186C" stroke-width="4.63957" stroke-linecap="round" stroke-linejoin="round"/>
<path d="M406.879 219.075C408.906 221.602 410.132 224.899 410.128 228.516C410.119 236.413 404.277 242.806 397.076 242.798C391.26 242.792 386.327 238.614 384.654 232.833" stroke="#1C186C" stroke-width="4.63957" stroke-linecap="round" stroke-linejoin="round"/>
<path d="M775.488 85.5929C776.742 85.8995 778.045 85.8572 779.279 85.4698C780.514 85.0823 781.64 84.362 782.556 83.3747C782.944 82.936 783.161 82.3492 783.162 81.7381C783.162 81.1271 782.946 80.5398 782.559 80.1003L780.337 77.5725" stroke="#1C186C" stroke-width="4.63957" stroke-linecap="round" stroke-linejoin="round"/>
<path d="M760.947 69.3339C760.68 67.942 760.734 66.4992 761.104 65.1357C761.473 63.7723 762.147 62.5312 763.063 61.5246C763.258 61.31 763.489 61.1397 763.744 61.0236C763.998 60.9075 764.271 60.8479 764.547 60.8482C764.823 60.8485 765.096 60.9087 765.35 61.0254C765.605 61.142 765.836 61.3128 766.03 61.5278L768.291 64.0556" stroke="#1C186C" stroke-width="4.63957" stroke-linecap="round" stroke-linejoin="round"/>
<path d="M778.81 63.5534C778.006 62.1566 777.582 60.5381 777.585 58.8865C777.587 57.7718 777.79 56.6684 778.183 55.6402C778.576 54.6121 779.151 53.6795 779.875 52.8966C780.012 52.7614 780.189 52.6866 780.373 52.6868C780.557 52.687 780.734 52.7622 780.871 52.8977C781.508 53.6071 782.017 54.4428 782.371 55.3604C782.693 56.0313 782.916 56.7539 783.032 57.5013C783.076 57.9566 783.075 58.4158 783.03 58.871C782.677 60.9516 781.708 62.8463 780.273 64.2612C781.603 62.7289 783.35 61.7097 785.253 61.356C785.668 61.3131 786.086 61.3135 786.502 61.3573C787.184 61.5041 787.842 61.7646 788.452 62.1299C789.292 62.5678 790.047 63.179 790.675 63.93C790.799 64.0796 790.867 64.2742 790.866 64.4759C790.866 64.6776 790.798 64.872 790.674 65.0214C789.212 66.5857 787.249 67.4595 785.207 67.4553C783.709 67.4431 782.246 66.9586 780.993 66.0597" stroke="#1C186C" stroke-width="4.63957" stroke-linecap="round" stroke-linejoin="round"/>
<path d="M756.396 90.3018C756.627 90.5922 756.889 90.8512 757.176 91.0731C757.978 91.6348 758.875 92.0155 759.813 92.1929C760.751 92.3703 761.712 92.3408 762.639 92.1063C764.832 91.7454 766.947 90.9576 768.887 89.7802C772.534 87.8538 775.599 84.8187 777.718 81.0365C779.597 77.2337 780.663 73.012 780.834 68.6912C780.834 68.3915 781.169 66.1447 780.954 65.9947L778.79 63.5526C778.654 63.317 776.624 63.5503 776.351 63.657C772.391 63.7662 768.508 64.883 765.008 66.9192C761.536 69.1626 758.738 72.4699 756.957 76.4342C755.236 80.3489 753.277 86.5746 756.396 90.3018Z" stroke="#1C186C" stroke-width="4.63957" stroke-linecap="round" stroke-linejoin="round"/>
<path d="M769.982 87.834C769.194 84.9126 767.77 82.2451 765.834 80.0608C763.889 77.8818 761.484 76.2621 758.833 75.3449" stroke="#1C186C" stroke-width="4.63957" stroke-linecap="round" stroke-linejoin="round"/>
<path d="M761.551 87.7604C761.733 87.9677 761.951 88.1327 762.192 88.2455C762.434 88.3583 762.693 88.4166 762.956 88.4168C763.218 88.4171 763.478 88.3594 763.719 88.2471C763.961 88.1349 764.179 87.9703 764.361 87.7634C764.628 87.4614 764.807 87.0801 764.877 86.6673C764.947 86.2544 764.904 85.8281 764.755 85.4415C764.606 85.0548 764.356 84.725 764.037 84.4929C763.717 84.2609 763.343 84.137 762.96 84.1366C762.577 84.1361 762.203 84.2593 761.883 84.4906C761.563 84.722 761.313 85.0513 761.163 85.4376C761.012 85.8239 760.969 86.2501 761.038 86.6631C761.107 87.0762 761.286 87.4578 761.551 87.7604Z" fill="#201D67"/>
<path d="M115.641 308.583C116.894 308.889 118.197 308.847 119.432 308.46C120.666 308.072 121.792 307.352 122.708 306.364C123.096 305.926 123.313 305.339 123.314 304.728C123.315 304.117 123.099 303.53 122.712 303.09L120.489 300.562" stroke="#1C186C" stroke-width="4.63957" stroke-linecap="round" stroke-linejoin="round"/>
<path d="M101.099 292.324C100.833 290.932 100.887 289.489 101.256 288.125C101.626 286.762 102.299 285.521 103.216 284.514C103.41 284.3 103.641 284.129 103.896 284.013C104.151 283.897 104.424 283.838 104.7 283.838C104.975 283.838 105.248 283.898 105.503 284.015C105.757 284.132 105.988 284.303 106.182 284.518L108.443 287.045" stroke="#1C186C" stroke-width="4.63957" stroke-linecap="round" stroke-linejoin="round"/>
<path d="M118.962 286.543C118.159 285.146 117.734 283.527 117.738 281.876C117.739 280.761 117.943 279.658 118.336 278.629C118.729 277.601 119.304 276.669 120.028 275.886C120.164 275.751 120.341 275.676 120.525 275.676C120.709 275.676 120.887 275.751 121.023 275.887C121.66 276.596 122.169 277.432 122.523 278.35C122.845 279.021 123.068 279.743 123.184 280.491C123.228 280.946 123.228 281.405 123.183 281.86C122.83 283.941 121.86 285.836 120.425 287.25C121.756 285.718 123.503 284.699 125.405 284.345C125.82 284.302 126.239 284.303 126.654 284.347C127.336 284.493 127.994 284.754 128.605 285.119C129.444 285.557 130.199 286.168 130.828 286.919C130.951 287.069 131.019 287.263 131.019 287.465C131.019 287.667 130.95 287.861 130.826 288.011C129.364 289.575 127.402 290.449 125.359 290.445C123.862 290.432 122.399 289.948 121.145 289.049" stroke="#1C186C" stroke-width="4.63957" stroke-linecap="round" stroke-linejoin="round"/>
<path d="M96.5484 313.292C96.7793 313.582 97.0411 313.841 97.3282 314.063C98.1305 314.625 99.0269 315.006 99.965 315.183C100.903 315.361 101.864 315.331 102.792 315.096C104.984 314.736 107.1 313.948 109.039 312.77C112.686 310.844 115.751 307.809 117.87 304.027C119.749 300.224 120.815 296.002 120.986 291.681C120.987 291.382 121.321 289.135 121.106 288.985L118.943 286.543C118.806 286.307 116.776 286.541 116.503 286.647C112.543 286.756 108.66 287.873 105.161 289.909C101.689 292.153 98.8903 295.46 97.1098 299.424C95.3881 303.339 93.4298 309.565 96.5484 313.292Z" stroke="#1C186C" stroke-width="4.63957" stroke-linecap="round" stroke-linejoin="round"/>
<path d="M110.134 310.824C109.345 307.902 107.922 305.235 105.985 303.051C104.04 300.872 101.636 299.252 98.9839 298.335" stroke="#1C186C" stroke-width="4.63957" stroke-linecap="round" stroke-linejoin="round"/>
<path d="M101.703 310.751C101.885 310.958 102.103 311.123 102.345 311.236C102.586 311.349 102.846 311.407 103.108 311.408C103.37 311.408 103.63 311.35 103.872 311.238C104.113 311.126 104.332 310.961 104.514 310.754C104.78 310.452 104.959 310.071 105.029 309.658C105.099 309.245 105.057 308.819 104.907 308.432C104.758 308.046 104.508 307.716 104.189 307.484C103.87 307.252 103.495 307.128 103.113 307.127C102.73 307.127 102.355 307.25 102.035 307.481C101.716 307.713 101.465 308.042 101.315 308.428C101.165 308.815 101.122 309.241 101.191 309.654C101.26 310.067 101.438 310.448 101.703 310.751Z" fill="#201D67"/>
<path d="M177.248 64.9596C178.501 65.2662 179.805 65.2239 181.039 64.8365C182.273 64.449 183.4 63.7287 184.315 62.7414C184.703 62.3027 184.921 61.7159 184.921 61.1048C184.922 60.4938 184.706 59.9065 184.319 59.467L182.097 56.9392" stroke="#1C186C" stroke-width="4.63957" stroke-linecap="round" stroke-linejoin="round"/>
<path d="M162.707 48.7006C162.44 47.3087 162.494 45.8659 162.864 44.5024C163.233 43.139 163.906 41.8979 164.823 40.8913C165.017 40.6767 165.249 40.5064 165.503 40.3903C165.758 40.2742 166.031 40.2146 166.307 40.2149C166.583 40.2152 166.856 40.2754 167.11 40.3921C167.365 40.5087 167.596 40.6795 167.789 40.8945L170.051 43.4223" stroke="#1C186C" stroke-width="4.63957" stroke-linecap="round" stroke-linejoin="round"/>
<path d="M180.57 42.9196C179.766 41.5228 179.342 39.9043 179.345 38.2528C179.347 37.138 179.55 36.0346 179.943 35.0064C180.336 33.9783 180.911 33.0458 181.635 32.2628C181.771 32.1276 181.949 32.0528 182.133 32.053C182.317 32.0532 182.494 32.1284 182.63 32.2639C183.268 32.9733 183.777 33.809 184.13 34.7267C184.452 35.3976 184.676 36.1201 184.792 36.8675C184.836 37.3228 184.835 37.782 184.79 38.2372C184.437 40.3178 183.468 42.2126 182.033 43.6274C183.363 42.0951 185.11 41.0759 187.012 40.7222C187.428 40.6793 187.846 40.6797 188.261 40.7235C188.944 40.8703 189.602 41.1308 190.212 41.4961C191.052 41.934 191.806 42.5452 192.435 43.2962C192.558 43.4459 192.626 43.6404 192.626 43.8421C192.626 44.0438 192.557 44.2383 192.434 44.3877C190.972 45.9519 189.009 46.8257 186.967 46.8216C185.469 46.8093 184.006 46.3248 182.753 45.4259" stroke="#1C186C" stroke-width="4.63957" stroke-linecap="round" stroke-linejoin="round"/>
<path d="M158.156 69.669C158.387 69.9594 158.649 70.2183 158.936 70.4403C159.738 71.002 160.634 71.3827 161.572 71.5601C162.51 71.7375 163.471 71.708 164.399 71.4734C166.591 71.1126 168.707 70.3248 170.647 69.1474C174.293 67.221 177.359 64.1859 179.477 60.4037C181.357 56.6009 182.422 52.3792 182.594 48.0583C182.594 47.7587 182.928 45.5119 182.714 45.3619L180.55 42.9198C180.414 42.6842 178.384 42.9175 178.111 43.0242C174.15 43.1334 170.268 44.2501 166.768 46.2864C163.296 48.5298 160.498 51.8371 158.717 55.8014C156.996 59.7161 155.037 65.9418 158.156 69.669Z" stroke="#1C186C" stroke-width="4.63957" stroke-linecap="round" stroke-linejoin="round"/>
<path d="M171.741 67.2012C170.953 64.2798 169.529 61.6123 167.593 59.428C165.648 57.249 163.243 55.6292 160.591 54.7121" stroke="#1C186C" stroke-width="4.63957" stroke-linecap="round" stroke-linejoin="round"/>
<path d="M163.311 67.1281C163.493 67.3354 163.711 67.5004 163.952 67.6132C164.193 67.726 164.453 67.7842 164.715 67.7845C164.978 67.7848 165.237 67.7271 165.479 67.6148C165.721 67.5025 165.939 67.338 166.121 67.1311C166.387 66.829 166.566 66.4478 166.636 66.0349C166.706 65.6221 166.664 65.1958 166.515 64.8091C166.365 64.4225 166.116 64.0926 165.796 63.8606C165.477 63.6286 165.103 63.5046 164.72 63.5042C164.337 63.5038 163.962 63.627 163.643 63.8583C163.323 64.0896 163.073 64.419 162.922 64.8053C162.772 65.1916 162.729 65.6178 162.798 66.0308C162.867 66.4438 163.045 66.8254 163.311 67.1281Z" fill="#201D67"/>
<path d="M577.853 81.6768L569.857 57.4631L561.81 81.6595" stroke="#1C186C" stroke-width="4.63957" stroke-linecap="round" stroke-linejoin="round"/>
<path d="M557.787 82.7471C558.119 82.7474 558.412 82.7263 558.685 82.6838C560.832 82.3009 561.127 80.5463 563.82 80.5492C566.845 80.5524 566.843 82.7568 569.829 82.76C572.854 82.7633 572.856 80.5589 575.842 80.5621C578.535 80.565 578.807 82.2988 580.972 82.7078C581.226 82.7509 581.538 82.7726 581.87 82.7729" stroke="#1C186C" stroke-width="4.63957" stroke-linecap="round" stroke-linejoin="round"/>
<path d="M559.793 86.0455C559.794 84.8898 559.952 83.7343 560.284 82.6859C562.139 82.3027 562.375 80.548 564.678 80.5505C567.274 80.5533 567.271 82.7577 569.828 82.7604C572.423 82.7632 572.426 80.5588 574.982 80.5616C577.285 80.5641 577.537 82.2979 579.371 82.7065C579.682 83.7555 579.857 84.9113 579.856 86.067C579.849 92.145 575.355 97.0626 569.812 97.0566C564.27 97.0506 559.786 92.1235 559.793 86.0455Z" stroke="#1C186C" stroke-width="4.63957" stroke-linecap="round" stroke-linejoin="round"/>
<path d="M559.801 79.4545L579.863 79.4761" stroke="#1C186C" stroke-width="4.63957" stroke-linecap="round" stroke-linejoin="round"/>
<path d="M53.5254 30.1455L45.5303 5.93181L37.4831 30.1283" stroke="#1C186C" stroke-width="4.63957" stroke-linecap="round" stroke-linejoin="round"/>
<path d="M33.462 31.2158C33.7937 31.2162 34.0865 31.1951 34.3598 31.1526C36.507 30.7697 36.8016 29.015 39.4948 29.0179C42.5198 29.0212 42.5175 31.2255 45.5034 31.2288C48.5285 31.232 48.5308 29.0277 51.5168 29.0309C54.21 29.0338 54.4814 30.7676 56.6472 31.1765C56.9009 31.2196 57.2131 31.2413 57.5449 31.2417" stroke="#1C186C" stroke-width="4.63957" stroke-linecap="round" stroke-linejoin="round"/>
<path d="M35.4668 34.5132C35.468 33.3575 35.6254 32.202 35.9583 31.1537C37.8127 30.7705 38.0488 29.0158 40.3517 29.0183C42.9474 29.0211 42.945 31.2254 45.5016 31.2282C48.0973 31.231 48.0997 29.0266 50.6563 29.0294C52.9592 29.0318 53.211 30.7656 55.0451 31.1742C55.3562 32.2232 55.5306 33.3791 55.5294 34.5348C55.5229 40.6128 51.0289 45.5303 45.4863 45.5244C39.9437 45.5184 35.4602 40.5913 35.4668 34.5132Z" stroke="#1C186C" stroke-width="4.63957" stroke-linecap="round" stroke-linejoin="round"/>
<path d="M35.4735 27.9218L55.5361 27.9434" stroke="#1C186C" stroke-width="4.63957" stroke-linecap="round" stroke-linejoin="round"/>
<path d="M371.366 68.7999L385.808 68.8154L385.81 66.5469L371.368 66.5314L371.366 68.7999Z" stroke="#1C186C" stroke-width="4.63957" stroke-linecap="round" stroke-linejoin="round"/>
<path d="M362.602 86.8956C361.274 86.8941 360.261 85.5233 360.575 84.1112C362.634 75.3174 369.92 68.8191 378.585 68.8285C387.25 68.8378 394.523 75.3516 396.563 84.1499C396.893 85.5627 395.877 86.9313 394.53 86.9299L362.602 86.8956V86.8956Z" stroke="#1C186C" stroke-width="4.63957" stroke-linecap="round" stroke-linejoin="round"/>
<path d="M386.351 86.9222C384.076 86.9197 382.231 88.9395 382.228 91.4334C382.225 93.9274 384.067 95.9511 386.341 95.9536C388.615 95.956 390.461 93.9363 390.464 91.4423C390.467 88.9483 388.625 86.9246 386.351 86.9222Z" stroke="#1C186C" stroke-width="4.63957" stroke-linecap="round" stroke-linejoin="round"/>
<path d="M370.777 87.2474C368.502 87.2449 366.656 89.2647 366.654 91.7586C366.651 94.2526 368.493 96.2763 370.767 96.2788C373.041 96.2812 374.887 94.2615 374.89 91.7675C374.892 89.2735 373.051 87.2498 370.777 87.2474Z" stroke="#1C186C" stroke-width="4.63957" stroke-linecap="round" stroke-linejoin="round"/>
<path d="M377.92 87.234C376.206 87.2321 374.815 88.7541 374.813 90.6335C374.811 92.5128 376.199 94.0378 377.913 94.0396C379.626 94.0415 381.017 92.5195 381.019 90.6401C381.021 88.7608 379.634 87.2358 377.92 87.234Z" stroke="#1C186C" stroke-width="4.63957" stroke-linecap="round" stroke-linejoin="round"/>
<path d="M388.588 95.6558L395.06 102.768" stroke="#1C186C" stroke-width="4.63957" stroke-linecap="round" stroke-linejoin="round"/>
<path d="M394.03 80.188L363.117 80.1548" stroke="#1C186C" stroke-width="4.63957" stroke-linecap="round" stroke-linejoin="round"/>
<path d="M454.616 146.018L489.745 146.056C489.749 142.504 487.137 139.633 483.897 139.629L460.478 139.604C457.238 139.601 454.62 142.466 454.616 146.018Z" stroke="#1C186C" stroke-width="4.63957" stroke-linecap="round" stroke-linejoin="round"/>
<path d="M472.16 165.299C480.786 165.308 487.781 157.654 487.791 148.194L487.793 146.054L456.567 146.021L456.565 148.161C456.555 157.62 463.533 165.289 472.16 165.299Z" stroke="#1C186C" stroke-width="4.63957" stroke-linecap="round" stroke-linejoin="round"/>
<path d="M472.161 163.694C470.275 163.692 468.744 165.367 468.742 167.436C468.74 169.504 470.267 171.183 472.153 171.185C474.039 171.187 475.57 169.512 475.572 167.443C475.575 165.375 474.047 163.696 472.161 163.694Z" fill="#201D67"/>
<path d="M598.969 223.69C593.563 223.321 588.16 220.725 583.891 215.97C579.661 211.257 577.345 205.262 577 199.269" stroke="#1C186C" stroke-width="4.63957" stroke-linecap="round" stroke-linejoin="round"/>
<path d="M574.779 197.876L577.181 197.237L601.544 190.735C604.823 189.861 607.689 193.075 606.865 196.712L605.14 204.415L605.022 204.907L603.512 211.604L603.375 212.246L600.825 223.479L600.198 226.218C599.61 228.849 597.285 230.538 594.905 230.107C589.051 229.052 583.551 226.093 579.165 221.208C574.798 216.367 572.17 210.265 571.221 203.779C570.834 201.125 572.398 198.516 574.779 197.876Z" stroke="#1C186C" stroke-width="4.63957" stroke-linecap="round" stroke-linejoin="round"/>
<path d="M589.486 204.739C587.762 204.737 586.362 206.288 586.36 208.203C586.358 210.117 587.754 211.671 589.479 211.673C591.204 211.675 592.603 210.124 592.605 208.209C592.607 206.294 591.211 204.741 589.486 204.739Z" stroke="#1C186C" stroke-width="4.63957" stroke-linecap="round" stroke-linejoin="round"/>
<path d="M601.038 206.058C602.112 204.861 603.655 204.478 605.02 204.95L603.059 213.68C602.318 213.486 601.616 213.1 601.031 212.457C599.432 210.679 599.435 207.812 601.038 206.058Z" stroke="#1C186C" stroke-width="4.63957" stroke-linecap="round" stroke-linejoin="round"/>
<path d="M598.592 193.855C598.884 195.097 598.589 196.466 597.73 197.428C596.42 198.882 594.313 198.88 593.007 197.423C592.578 196.952 592.286 196.374 592.15 195.753" stroke="#1C186C" stroke-width="4.63957" stroke-linecap="round" stroke-linejoin="round"/>
<path d="M35.46 236.457C30.0544 236.087 24.6512 233.492 20.3822 228.736C16.1523 224.023 13.8363 218.028 13.4915 212.035" stroke="#1C186C" stroke-width="4.63957" stroke-linecap="round" stroke-linejoin="round"/>
<path d="M11.2686 210.641L13.6698 210.002L38.033 203.5C41.3126 202.627 44.178 205.84 43.3545 209.477L41.6288 217.18L41.5112 217.672L40.0012 224.369L39.8639 225.011L37.3147 236.244L36.6872 238.983C36.0989 241.614 33.7747 243.303 31.3942 242.872C25.5404 241.817 20.0401 238.858 15.6542 233.974C11.2878 229.132 8.65962 223.03 7.7103 216.544C7.32283 213.89 8.88694 211.281 11.2686 210.641Z" stroke="#1C186C" stroke-width="4.63957" stroke-linecap="round" stroke-linejoin="round"/>
<path d="M25.9757 217.506C24.2511 217.504 22.8514 219.055 22.8493 220.97C22.8473 222.884 24.2437 224.438 25.9682 224.44C27.6928 224.442 29.0925 222.891 29.0945 220.976C29.0966 219.062 27.7002 217.508 25.9757 217.506Z" stroke="#1C186C" stroke-width="4.63957" stroke-linecap="round" stroke-linejoin="round"/>
<path d="M37.5288 218.823C38.6035 217.625 40.1457 217.242 41.5113 217.714L39.5503 226.444C38.8089 226.25 38.1067 225.864 37.5219 225.222C35.9235 223.444 35.9266 220.576 37.5288 218.823Z" stroke="#1C186C" stroke-width="4.63957" stroke-linecap="round" stroke-linejoin="round"/>
<path d="M35.0834 206.621C35.3748 207.863 35.0806 209.232 34.2208 210.195C32.9117 211.648 30.804 211.646 29.4979 210.19C29.0691 209.718 28.777 209.14 28.641 208.519" stroke="#1C186C" stroke-width="4.63957" stroke-linecap="round" stroke-linejoin="round"/>
<path d="M672.904 144.306L692.912 122.413C695.042 120.082 695.046 116.316 692.921 113.981C690.797 111.645 687.362 111.642 685.232 113.972L665.224 135.866C663.094 138.196 663.09 141.963 665.215 144.298C667.34 146.633 670.775 146.637 672.904 144.306Z" stroke="#1C186C" stroke-width="4.63957" stroke-linecap="round" stroke-linejoin="round"/>
<path d="M688.72 119.497C686.414 122.02 685.596 121.121 683.271 123.643C680.965 126.166 681.784 127.066 679.478 129.61C677.172 132.133 676.334 131.233 674.028 133.756C671.723 136.279 672.542 137.2 670.236 139.723" stroke="#1C186C" stroke-width="4.63957" stroke-linecap="round" stroke-linejoin="round"/>
<path d="M679.811 146.84L695.207 129.992C697.767 127.191 697.772 122.675 695.218 119.869L670.599 146.809C673.133 149.636 677.27 149.641 679.811 146.84Z" stroke="#1C186C" stroke-width="4.63957" stroke-linecap="round" stroke-linejoin="round"/>
<path d="M678.327 111.44L662.93 128.288C660.371 131.089 660.366 135.604 662.919 138.411L687.539 111.471C685.005 108.643 680.867 108.639 678.327 111.44Z" stroke="#1C186C" stroke-width="4.63957" stroke-linecap="round" stroke-linejoin="round"/>
<path d="M17.3721 398.279L37.3802 376.386C39.51 374.055 39.514 370.289 37.3892 367.954C35.2645 365.619 31.8296 365.615 29.6999 367.945L9.69177 389.839C7.562 392.17 7.55795 395.936 9.6827 398.271C11.8075 400.606 15.2423 400.61 17.3721 398.279Z" stroke="#1C186C" stroke-width="4.63957" stroke-linecap="round" stroke-linejoin="round"/>
<path d="M33.1868 373.471C30.8812 375.994 30.0625 375.094 27.7373 377.617C25.4317 380.14 26.2504 381.04 23.9448 383.584C21.6391 386.107 20.8009 385.207 18.4953 387.73C16.1897 390.253 17.0084 391.174 14.7027 393.697" stroke="#1C186C" stroke-width="4.63957" stroke-linecap="round" stroke-linejoin="round"/>
<path d="M24.2773 400.813L39.6742 383.965C42.2338 381.164 42.2387 376.648 39.6851 373.842L15.0657 400.781C17.5998 403.609 21.7372 403.613 24.2773 400.813Z" stroke="#1C186C" stroke-width="4.63957" stroke-linecap="round" stroke-linejoin="round"/>
<path d="M22.793 365.413L7.39609 382.261C4.83646 385.062 4.8316 389.578 7.38521 392.384L32.0046 365.445C29.4705 362.617 25.3331 362.613 22.793 365.413Z" stroke="#1C186C" stroke-width="4.63957" stroke-linecap="round" stroke-linejoin="round"/>
<path d="M89.8525 145.134L109.861 123.241C111.99 120.91 111.994 117.144 109.87 114.809C107.745 112.474 104.31 112.47 102.18 114.8L82.1722 136.694C80.0425 139.024 80.0384 142.791 82.1632 145.126C84.2879 147.461 87.7228 147.465 89.8525 145.134Z" stroke="#1C186C" stroke-width="4.63957" stroke-linecap="round" stroke-linejoin="round"/>
<path d="M105.667 120.325C103.362 122.847 102.543 121.948 100.218 124.471C97.9122 126.993 98.7309 127.893 96.4252 130.437C94.1196 132.96 93.2814 132.061 90.9758 134.584C88.6701 137.106 89.4888 138.028 87.1832 140.55" stroke="#1C186C" stroke-width="4.63957" stroke-linecap="round" stroke-linejoin="round"/>
<path d="M96.7588 147.667L112.156 130.819C114.715 128.018 114.72 123.502 112.167 120.696L87.5472 147.635C90.0812 150.463 94.2187 150.467 96.7588 147.667Z" stroke="#1C186C" stroke-width="4.63957" stroke-linecap="round" stroke-linejoin="round"/>
<path d="M95.2744 112.267L79.8775 129.115C77.3179 131.916 77.313 136.432 79.8667 139.238L104.486 112.299C101.952 109.471 97.8145 109.467 95.2744 112.267Z" stroke="#1C186C" stroke-width="4.63957" stroke-linecap="round" stroke-linejoin="round"/>
<path d="M776.581 192.977L796.097 192.998C799.571 193.001 802.378 196.086 802.374 199.896L802.369 204.005L770.285 203.97L770.289 199.861C770.293 196.052 773.107 192.973 776.581 192.977Z" stroke="#1C186C" stroke-width="4.63957" stroke-linecap="round" stroke-linejoin="round"/>
<path d="M771.274 210.564L801.368 210.596C803.026 210.598 804.375 209.123 804.377 207.304C804.379 205.485 803.034 204.007 801.375 204.005L771.281 203.972C769.622 203.971 768.274 205.446 768.272 207.265C768.27 209.084 769.615 210.562 771.274 210.564Z" stroke="#1C186C" stroke-width="4.63957" stroke-linecap="round" stroke-linejoin="round"/>
<path d="M785.267 228.171L787.336 228.173C795.63 228.182 802.352 220.827 802.361 211.731L802.363 210.597L770.278 210.562L770.277 211.697C770.267 220.792 776.973 228.162 785.267 228.171Z" stroke="#1C186C" stroke-width="4.63957" stroke-linecap="round" stroke-linejoin="round"/>
<path d="M802.586 203.471C801.826 202.571 801.281 201.351 799.856 201.349C798.431 201.347 797.884 202.567 797.121 203.465" stroke="#1C186C" stroke-width="4.63957" stroke-linecap="round" stroke-linejoin="round"/>
<path d="M784.26 203.451C783.5 202.551 782.954 201.331 781.53 201.329C780.086 201.328 779.538 202.547 778.776 203.445" stroke="#1C186C" stroke-width="4.63957" stroke-linecap="round" stroke-linejoin="round"/>
<path d="M772.337 201.341C773.762 201.342 774.307 202.563 775.067 203.462" stroke="#1C186C" stroke-width="4.63957" stroke-linecap="round" stroke-linejoin="round"/>
<path d="M793.413 203.461C792.653 202.561 792.108 201.341 790.683 201.339C789.258 201.338 788.711 202.557 787.949 203.455" stroke="#1C186C" stroke-width="4.63957" stroke-linecap="round" stroke-linejoin="round"/>
<path d="M105.837 446.934L125.354 446.955C128.827 446.959 131.634 450.043 131.63 453.853L131.626 457.962L99.5414 457.927L99.5458 453.818C99.5499 450.009 102.364 446.93 105.837 446.934Z" stroke="#1C186C" stroke-width="4.63957" stroke-linecap="round" stroke-linejoin="round"/>
<path d="M100.529 464.521L130.623 464.553C132.282 464.555 133.63 463.08 133.632 461.261C133.634 459.442 132.289 457.964 130.631 457.962L100.537 457.929C98.8777 457.928 97.5295 459.403 97.5275 461.222C97.5256 463.041 98.8706 464.519 100.529 464.521Z" stroke="#1C186C" stroke-width="4.63957" stroke-linecap="round" stroke-linejoin="round"/>
<path d="M114.524 482.128L116.593 482.13C124.887 482.139 131.608 474.784 131.618 465.688L131.619 464.554L99.5349 464.519L99.5337 465.654C99.5239 474.749 106.23 482.119 114.524 482.128Z" stroke="#1C186C" stroke-width="4.63957" stroke-linecap="round" stroke-linejoin="round"/>
<path d="M131.841 457.429C131.081 456.529 130.536 455.309 129.111 455.307C127.686 455.305 127.138 456.525 126.376 457.423" stroke="#1C186C" stroke-width="4.63957" stroke-linecap="round" stroke-linejoin="round"/>
<path d="M113.516 457.409C112.755 456.509 112.21 455.289 110.786 455.287C109.341 455.285 108.794 456.505 108.032 457.403" stroke="#1C186C" stroke-width="4.63957" stroke-linecap="round" stroke-linejoin="round"/>
<path d="M101.593 455.298C103.018 455.299 103.563 456.52 104.323 457.419" stroke="#1C186C" stroke-width="4.63957" stroke-linecap="round" stroke-linejoin="round"/>
<path d="M122.668 457.418C121.908 456.519 121.363 455.298 119.938 455.297C118.513 455.295 117.966 456.515 117.203 457.413" stroke="#1C186C" stroke-width="4.63957" stroke-linecap="round" stroke-linejoin="round"/>
<path d="M178.332 179.494L197.848 179.515C201.322 179.519 204.129 182.604 204.125 186.413L204.12 190.522L172.036 190.488L172.04 186.379C172.044 182.569 174.858 179.491 178.332 179.494Z" stroke="#1C186C" stroke-width="4.63957" stroke-linecap="round" stroke-linejoin="round"/>
<path d="M173.024 197.08L203.118 197.112C204.776 197.114 206.125 195.639 206.127 193.82C206.129 192.001 204.784 190.523 203.125 190.521L173.031 190.488C171.372 190.487 170.024 191.962 170.022 193.781C170.02 195.6 171.365 197.078 173.024 197.08Z" stroke="#1C186C" stroke-width="4.63957" stroke-linecap="round" stroke-linejoin="round"/>
<path d="M187.018 214.688L189.087 214.69C197.381 214.699 204.103 207.344 204.112 198.249L204.114 197.115L172.029 197.08L172.028 198.214C172.018 207.31 178.724 214.679 187.018 214.688Z" stroke="#1C186C" stroke-width="4.63957" stroke-linecap="round" stroke-linejoin="round"/>
<path d="M204.336 189.988C203.576 189.088 203.031 187.868 201.606 187.866C200.181 187.865 199.634 189.084 198.871 189.982" stroke="#1C186C" stroke-width="4.63957" stroke-linecap="round" stroke-linejoin="round"/>
<path d="M186.011 189.968C185.251 189.069 184.705 187.848 183.281 187.847C181.837 187.845 181.289 189.064 180.527 189.962" stroke="#1C186C" stroke-width="4.63957" stroke-linecap="round" stroke-linejoin="round"/>
<path d="M174.088 187.858C175.513 187.859 176.058 189.08 176.818 189.979" stroke="#1C186C" stroke-width="4.63957" stroke-linecap="round" stroke-linejoin="round"/>
<path d="M195.164 189.978C194.404 189.078 193.859 187.858 192.434 187.856C191.009 187.855 190.462 189.074 189.7 189.972" stroke="#1C186C" stroke-width="4.63957" stroke-linecap="round" stroke-linejoin="round"/>
</g>
</svg>
